<svg width="27" height="12" viewBox="0 0 27 12" fill="none" xmlns="http://www.w3.org/2000/svg">
<g opacity="0.4">
<mask id="path-1-inside-1_31_759" fill="white">
<path fill-rule="evenodd" clip-rule="evenodd" d="M5.70024 1H19.3002C20.2268 1 20.8616 1.00078 21.3534 1.04096C21.8335 1.08018 22.0886 1.15192 22.2717 1.24524C22.6951 1.46095 23.0393 1.80516 23.255 2.22852C23.3483 2.41166 23.4201 2.66673 23.4593 3.14684C23.4995 3.63862 23.5002 4.27341 23.5002 5.2V6.8C23.5002 7.72659 23.4995 8.36138 23.4593 8.85316C23.4201 9.33327 23.3483 9.58834 23.255 9.77148C23.0393 10.1948 22.6951 10.539 22.2717 10.7548C22.0886 10.8481 21.8335 10.9198 21.3534 10.959C20.8616 10.9992 20.2268 11 19.3002 11H5.70024C4.77366 11 4.13886 10.9992 3.64708 10.959C3.16698 10.9198 2.9119 10.8481 2.72877 10.7548C2.3054 10.539 1.96119 10.1948 1.74548 9.77148C1.65217 9.58834 1.58043 9.33327 1.5412 8.85316C1.50102 8.36138 1.50024 7.72659 1.50024 6.8V5.2C1.50024 4.27341 1.50102 3.63862 1.5412 3.14684C1.58043 2.66673 1.65217 2.41166 1.74548 2.22852C1.96119 1.80516 2.3054 1.46095 2.72877 1.24524C2.9119 1.15192 3.16698 1.08018 3.64708 1.04096C4.13886 1.00078 4.77366 1 5.70024 1ZM0.500244 5.2C0.500244 3.37983 0.500244 2.46974 0.854473 1.77453C1.16606 1.163 1.66325 0.665817 2.27477 0.354229C2.96999 0 3.88007 0 5.70024 0H19.3002C21.1204 0 22.0305 0 22.7257 0.354229C23.3372 0.665817 23.8344 1.163 24.146 1.77453C24.5002 2.46974 24.5002 3.37983 24.5002 5.2V6.8C24.5002 8.62017 24.5002 9.53026 24.146 10.2255C23.8344 10.837 23.3372 11.3342 22.7257 11.6458C22.0305 12 21.1204 12 19.3002 12H5.70024C3.88007 12 2.96999 12 2.27477 11.6458C1.66325 11.3342 1.16606 10.837 0.854473 10.2255C0.500244 9.53026 0.500244 8.62017 0.500244 6.8V5.2ZM27.0002 6C27.0002 5.06808 26.3629 4.28503 25.5002 4.06301V7.93699C26.3629 7.71497 27.0002 6.93192 27.0002 6Z"/>
</mask>
<path d="M21.3534 1.04096L21.272 2.03764L21.3534 1.04096ZM22.2717 1.24524L21.8177 2.13624L21.8177 2.13624L22.2717 1.24524ZM23.255 2.22852L24.146 1.77453L24.146 1.77453L23.255 2.22852ZM23.4593 3.14684L22.4626 3.22827V3.22827L23.4593 3.14684ZM23.4593 8.85316L22.4626 8.77173V8.77173L23.4593 8.85316ZM23.255 9.77148L24.146 10.2255L24.146 10.2255L23.255 9.77148ZM22.2717 10.7548L21.8177 9.86376L21.8177 9.86376L22.2717 10.7548ZM21.3534 10.959L21.4348 11.9557L21.3534 10.959ZM3.64708 10.959L3.56565 11.9557L3.56565 11.9557L3.64708 10.959ZM2.72877 10.7548L3.18276 9.86376L3.18276 9.86376L2.72877 10.7548ZM1.74548 9.77148L0.854473 10.2255L0.854473 10.2255L1.74548 9.77148ZM1.5412 8.85316L2.53788 8.77173V8.77173L1.5412 8.85316ZM1.5412 3.14684L2.53788 3.22827L1.5412 3.14684ZM1.74548 2.22852L2.63649 2.68251L2.63649 2.68251L1.74548 2.22852ZM2.72877 1.24524L3.18276 2.13624L3.18276 2.13624L2.72877 1.24524ZM3.64708 1.04096L3.72851 2.03764H3.72851L3.64708 1.04096ZM0.854473 1.77453L1.74548 2.22852L0.854473 1.77453ZM2.27477 0.354229L2.72877 1.24524L2.27477 0.354229ZM22.7257 0.354229L23.1797 -0.536778V-0.536778L22.7257 0.354229ZM24.146 1.77453L23.255 2.22852V2.22852L24.146 1.77453ZM24.146 10.2255L23.255 9.77148L24.146 10.2255ZM22.7257 11.6458L22.2717 10.7548L22.7257 11.6458ZM2.27477 11.6458L2.72877 10.7548H2.72877L2.27477 11.6458ZM0.854473 10.2255L-0.0365336 10.6795L-0.0365335 10.6795L0.854473 10.2255ZM25.5002 4.06301L25.7495 3.09457L24.5002 2.77303V4.06301H25.5002ZM25.5002 7.93699H24.5002V9.22696L25.7495 8.90543L25.5002 7.93699ZM19.3002 0H5.70024V2H19.3002V0ZM21.4348 0.0442787C20.8928 -7.92929e-06 20.2099 0 19.3002 0V2C20.2437 2 20.8305 2.00156 21.272 2.03764L21.4348 0.0442787ZM22.7257 0.35423C22.3779 0.176994 21.9764 0.0885226 21.4348 0.0442786L21.272 2.03764C21.6907 2.07184 21.7993 2.12685 21.8177 2.13624L22.7257 0.35423ZM24.146 1.77453C23.8344 1.163 23.3372 0.665817 22.7257 0.354229L21.8177 2.13624C22.0529 2.25608 22.2442 2.44731 22.364 2.68251L24.146 1.77453ZM24.456 3.06541C24.4117 2.52388 24.3232 2.12237 24.146 1.77453L22.364 2.68251C22.3734 2.70095 22.4284 2.80959 22.4626 3.22827L24.456 3.06541ZM24.5002 5.2C24.5002 4.29033 24.5003 3.60745 24.456 3.06541L22.4626 3.22827C22.4987 3.66978 22.5002 4.2565 22.5002 5.2H24.5002ZM24.5002 6.8V5.2H22.5002V6.8H24.5002ZM24.456 8.93459C24.5003 8.39255 24.5002 7.70967 24.5002 6.8H22.5002C22.5002 7.7435 22.4987 8.33022 22.4626 8.77173L24.456 8.93459ZM24.146 10.2255C24.3232 9.87763 24.4117 9.47612 24.456 8.93459L22.4626 8.77173C22.4284 9.19041 22.3734 9.29905 22.364 9.31749L24.146 10.2255ZM22.7257 11.6458C23.3372 11.3342 23.8344 10.837 24.146 10.2255L22.364 9.31749C22.2442 9.55269 22.0529 9.74392 21.8177 9.86376L22.7257 11.6458ZM21.4348 11.9557C21.9764 11.9115 22.3779 11.823 22.7257 11.6458L21.8177 9.86376C21.7993 9.87315 21.6907 9.92815 21.272 9.96236L21.4348 11.9557ZM19.3002 12C20.2099 12 20.8928 12 21.4348 11.9557L21.272 9.96236C20.8305 9.99844 20.2437 10 19.3002 10V12ZM5.70024 12H19.3002V10H5.70024V12ZM3.56565 11.9557C4.10769 12 4.79057 12 5.70024 12V10C4.75675 10 4.17003 9.99844 3.72852 9.96236L3.56565 11.9557ZM2.27477 11.6458C2.62262 11.823 3.02413 11.9115 3.56565 11.9557L3.72852 9.96236C3.30983 9.92815 3.20119 9.87315 3.18276 9.86376L2.27477 11.6458ZM0.854473 10.2255C1.16606 10.837 1.66325 11.3342 2.27477 11.6458L3.18276 9.86376C2.94755 9.74392 2.75633 9.55269 2.63649 9.31749L0.854473 10.2255ZM0.544523 8.93459C0.588767 9.47612 0.677238 9.87763 0.854473 10.2255L2.63649 9.31749C2.62709 9.29905 2.57209 9.19041 2.53788 8.77173L0.544523 8.93459ZM0.500244 6.8C0.500244 7.70967 0.500236 8.39255 0.544523 8.93459L2.53788 8.77173C2.50181 8.33022 2.50024 7.7435 2.50024 6.8H0.500244ZM0.500244 5.2V6.8H2.50024V5.2H0.500244ZM0.544523 3.06541C0.500236 3.60745 0.500244 4.29033 0.500244 5.2H2.50024C2.50024 4.2565 2.50181 3.66978 2.53788 3.22827L0.544523 3.06541ZM0.854473 1.77453C0.677238 2.12237 0.588767 2.52388 0.544523 3.06541L2.53788 3.22827C2.57209 2.80959 2.62709 2.70095 2.63649 2.68251L0.854473 1.77453ZM2.27478 0.354229C1.66325 0.665817 1.16606 1.163 0.854473 1.77453L2.63649 2.68251C2.75633 2.44731 2.94755 2.25608 3.18276 2.13624L2.27478 0.354229ZM3.56565 0.0442786C3.02413 0.0885227 2.62262 0.176994 2.27477 0.354229L3.18276 2.13624C3.20119 2.12685 3.30983 2.07184 3.72851 2.03764L3.56565 0.0442786ZM5.70024 0C4.79057 0 4.10769 -7.92941e-06 3.56565 0.0442787L3.72851 2.03764C4.17003 2.00156 4.75675 2 5.70024 2V0ZM-0.0365335 1.32054C-0.297449 1.83261 -0.402825 2.38019 -0.452156 2.98397C-0.500534 3.57609 -0.499756 4.30642 -0.499756 5.2H1.50024C1.50024 4.27341 1.50102 3.63862 1.5412 3.14684C1.58043 2.66673 1.65217 2.41166 1.74548 2.22852L-0.0365335 1.32054ZM1.82078 -0.536778C1.0211 -0.129316 0.370928 0.520851 -0.0365335 1.32054L1.74548 2.22852C1.96119 1.80516 2.3054 1.46095 2.72877 1.24524L1.82078 -0.536778ZM5.70024 -1C4.80666 -1 4.07633 -1.00078 3.48422 -0.9524C2.88043 -0.903069 2.33286 -0.797693 1.82078 -0.536778L2.72877 1.24524C2.9119 1.15192 3.16698 1.08018 3.64708 1.04096C4.13886 1.00078 4.77366 1 5.70024 1V-1ZM19.3002 -1H5.70024V1H19.3002V-1ZM23.1797 -0.536778C22.6676 -0.797693 22.1201 -0.903069 21.5163 -0.9524C20.9242 -1.00078 20.1938 -1 19.3002 -1V1C20.2268 1 20.8616 1.00078 21.3534 1.04096C21.8335 1.08018 22.0886 1.15192 22.2717 1.24524L23.1797 -0.536778ZM25.037 1.32054C24.6296 0.520852 23.9794 -0.129316 23.1797 -0.536778L22.2717 1.24524C22.6951 1.46095 23.0393 1.80516 23.255 2.22852L25.037 1.32054ZM25.5002 5.2C25.5002 4.30642 25.501 3.57609 25.4526 2.98397C25.4033 2.38019 25.2979 1.83261 25.037 1.32054L23.255 2.22852C23.3483 2.41166 23.4201 2.66673 23.4593 3.14684C23.4995 3.63862 23.5002 4.27341 23.5002 5.2H25.5002ZM25.5002 6.8V5.2H23.5002V6.8H25.5002ZM25.037 10.6795C25.2979 10.1674 25.4033 9.61981 25.4526 9.01603C25.501 8.42391 25.5002 7.69358 25.5002 6.8H23.5002C23.5002 7.72659 23.4995 8.36138 23.4593 8.85316C23.4201 9.33327 23.3483 9.58834 23.255 9.77148L25.037 10.6795ZM23.1797 12.5368C23.9794 12.1293 24.6296 11.4791 25.037 10.6795L23.255 9.77148C23.0393 10.1948 22.6951 10.539 22.2717 10.7548L23.1797 12.5368ZM19.3002 13C20.1938 13 20.9242 13.0008 21.5163 12.9524C22.1201 12.9031 22.6676 12.7977 23.1797 12.5368L22.2717 10.7548C22.0886 10.8481 21.8335 10.9198 21.3534 10.959C20.8616 10.9992 20.2268 11 19.3002 11V13ZM5.70024 13H19.3002V11H5.70024V13ZM1.82078 12.5368C2.33286 12.7977 2.88043 12.9031 3.48422 12.9524C4.07633 13.0008 4.80666 13 5.70024 13V11C4.77366 11 4.13886 10.9992 3.64708 10.959C3.16698 10.9198 2.9119 10.8481 2.72877 10.7548L1.82078 12.5368ZM-0.0365335 10.6795C0.370928 11.4791 1.0211 12.1293 1.82078 12.5368L2.72877 10.7548C2.3054 10.539 1.96119 10.1948 1.74548 9.77148L-0.0365335 10.6795ZM-0.499756 6.8C-0.499756 7.69358 -0.500534 8.42391 -0.452156 9.01603C-0.402825 9.61981 -0.297449 10.1674 -0.0365336 10.6795L1.74548 9.77148C1.65217 9.58834 1.58043 9.33327 1.5412 8.85316C1.50102 8.36138 1.50024 7.72659 1.50024 6.8H-0.499756ZM-0.499756 5.2V6.8H1.50024V5.2H-0.499756ZM25.251 5.03145C25.6825 5.14251 26.0002 5.53541 26.0002 6H28.0002C28.0002 4.60075 27.0432 3.42755 25.7495 3.09457L25.251 5.03145ZM26.5002 7.93699V4.06301H24.5002V7.93699H26.5002ZM26.0002 6C26.0002 6.46459 25.6825 6.85749 25.251 6.96855L25.7495 8.90543C27.0432 8.57245 28.0002 7.39925 28.0002 6H26.0002Z" fill="black" mask="url(#path-1-inside-1_31_759)"/>
</g>
<rect x="2.50024" y="2" width="20" height="8" rx="1.5" fill="black"/>
</svg>
