<svg width="14" height="25" viewBox="0 0 14 25" fill="none" xmlns="http://www.w3.org/2000/svg">
<path d="M11.3496 13.5068C11.3496 13.6507 11.3219 13.7835 11.2666 13.9053C11.2168 14.027 11.1338 14.146 11.0176 14.2622L6.03711 19.1846C5.86003 19.3672 5.63867 19.4585 5.37305 19.4585C5.10189 19.4585 4.87223 19.3672 4.68408 19.1846C4.50146 18.9964 4.41016 18.7695 4.41016 18.5039C4.41016 18.2383 4.50977 18.0031 4.70898 17.7983L9.06689 13.5068L4.70898 9.21533C4.50977 9.01058 4.41016 8.77539 4.41016 8.50977C4.41016 8.24414 4.50146 8.02002 4.68408 7.8374C4.87223 7.64925 5.10189 7.55518 5.37305 7.55518C5.63867 7.55518 5.86003 7.64648 6.03711 7.8291L11.0176 12.7515C11.2389 12.9673 11.3496 13.2191 11.3496 13.5068Z" fill="#E1A610"/>
</svg>
