<svg width="38" height="30" viewBox="0 0 38 30" fill="none" xmlns="http://www.w3.org/2000/svg">
<path d="M12.3584 29.751C11.943 29.751 11.6208 29.6149 11.3916 29.3428C11.1696 29.0706 11.0586 28.7054 11.0586 28.2471V24.5518H10.2529C8.95671 24.5518 7.85742 24.3154 6.95508 23.8428C6.05273 23.3701 5.36523 22.6826 4.89258 21.7803C4.42708 20.8779 4.19434 19.7858 4.19434 18.5039V7.54688C4.19434 6.26497 4.42708 5.17285 4.89258 4.27051C5.36523 3.36816 6.05273 2.68066 6.95508 2.20801C7.85742 1.72819 8.95671 1.48828 10.2529 1.48828H28.3965C29.6927 1.48828 30.792 1.72819 31.6943 2.20801C32.5967 2.68066 33.2806 3.36816 33.7461 4.27051C34.2188 5.17285 34.4551 6.26497 34.4551 7.54688V18.5039C34.4551 19.7786 34.2188 20.8672 33.7461 21.7695C33.2806 22.6719 32.5967 23.3594 31.6943 23.832C30.792 24.3118 29.6927 24.5518 28.3965 24.5518H18.9004L14.0557 28.8164C13.7048 29.1243 13.4076 29.3571 13.1641 29.5146C12.9206 29.6722 12.652 29.751 12.3584 29.751ZM12.8311 27.5918L17.3535 23.2412C17.5898 22.9977 17.8154 22.8366 18.0303 22.7578C18.2451 22.6862 18.5208 22.6504 18.8574 22.6504H28.3857C29.3024 22.6504 30.0687 22.4893 30.6846 22.167C31.3005 21.8447 31.766 21.3757 32.0811 20.7598C32.3962 20.1367 32.5537 19.3776 32.5537 18.4824V7.55762C32.5537 6.66243 32.3962 5.9069 32.0811 5.29102C31.766 4.66797 31.3005 4.19531 30.6846 3.87305C30.0687 3.55078 29.3024 3.38965 28.3857 3.38965H10.2637C9.33984 3.38965 8.56999 3.55078 7.9541 3.87305C7.33822 4.19531 6.87272 4.66797 6.55762 5.29102C6.24967 5.9069 6.0957 6.66243 6.0957 7.55762V18.4824C6.0957 19.3776 6.24967 20.1367 6.55762 20.7598C6.87272 21.3757 7.33822 21.8447 7.9541 22.167C8.56999 22.4893 9.33984 22.6504 10.2637 22.6504H11.9395C12.2617 22.6504 12.4909 22.7184 12.627 22.8545C12.763 22.9906 12.8311 23.2233 12.8311 23.5527V27.5918ZM12.7451 14.8838C12.2295 14.8838 11.7855 14.7012 11.4131 14.3359C11.0479 13.9707 10.8652 13.5303 10.8652 13.0146C10.8652 12.499 11.0479 12.0586 11.4131 11.6934C11.7855 11.3281 12.2295 11.1455 12.7451 11.1455C13.2607 11.1455 13.7012 11.3281 14.0664 11.6934C14.4388 12.0586 14.625 12.499 14.625 13.0146C14.625 13.5303 14.4388 13.9707 14.0664 14.3359C13.7012 14.7012 13.2607 14.8838 12.7451 14.8838ZM19.3301 14.8838C18.8073 14.8838 18.3633 14.7012 17.998 14.3359C17.6328 13.9707 17.4502 13.5303 17.4502 13.0146C17.4502 12.499 17.6328 12.0586 17.998 11.6934C18.3633 11.3281 18.8073 11.1455 19.3301 11.1455C19.8457 11.1455 20.2861 11.3281 20.6514 11.6934C21.0166 12.0586 21.1992 12.499 21.1992 13.0146C21.1992 13.5303 21.0166 13.9707 20.6514 14.3359C20.2861 14.7012 19.8457 14.8838 19.3301 14.8838ZM25.9043 14.8838C25.3887 14.8838 24.9447 14.7012 24.5723 14.3359C24.207 13.9707 24.0244 13.5303 24.0244 13.0146C24.0244 12.499 24.207 12.0586 24.5723 11.6934C24.9447 11.3281 25.3887 11.1455 25.9043 11.1455C26.4199 11.1455 26.8604 11.3281 27.2256 11.6934C27.598 12.0586 27.7842 12.499 27.7842 13.0146C27.7842 13.5303 27.598 13.9707 27.2256 14.3359C26.8604 14.7012 26.4199 14.8838 25.9043 14.8838Z" fill="#E1A610"/>
</svg>
