<svg width="22" height="23" viewBox="0 0 22 23" fill="none" xmlns="http://www.w3.org/2000/svg">
<path d="M2.09424 10.3862C1.85075 10.3862 1.646 10.3088 1.47998 10.1538C1.3195 9.99333 1.23926 9.79134 1.23926 9.54785C1.24479 9.30436 1.3278 9.10791 1.48828 8.9585C1.6543 8.80355 1.85628 8.72607 2.09424 8.72607H3.55518L7.22412 8.91699L4.02832 5.8457L0.600098 2.41748C0.51709 2.34001 0.453451 2.2487 0.40918 2.14355C0.370443 2.03288 0.351074 1.91943 0.351074 1.80322C0.351074 1.54313 0.434082 1.33561 0.600098 1.18066C0.771647 1.02572 0.984701 0.948242 1.23926 0.948242C1.47168 0.948242 1.66536 1.02848 1.82031 1.18896L5.22363 4.62549L8.31152 7.82129L8.12061 4.16064V2.69971C8.12061 2.45622 8.19808 2.25423 8.35303 2.09375C8.50798 1.93327 8.70443 1.85303 8.94238 1.85303C9.19141 1.85303 9.39339 1.93604 9.54834 2.10205C9.70329 2.26807 9.78076 2.46729 9.78076 2.69971V8.91699C9.78076 9.38184 9.65072 9.7443 9.39062 10.0044C9.13607 10.259 8.77913 10.3862 8.31982 10.3862H2.09424ZM12.5449 21.4346C12.3014 21.4346 12.0994 21.3516 11.939 21.1855C11.784 21.0195 11.7065 20.8203 11.7065 20.5879V14.1548C11.7065 13.6955 11.8338 13.3385 12.0884 13.084C12.3485 12.8239 12.7082 12.6938 13.1675 12.6938H19.6089C19.8524 12.6938 20.0544 12.7713 20.2148 12.9263C20.3809 13.0812 20.4639 13.2804 20.4639 13.5239C20.4583 13.7729 20.3726 13.9749 20.2065 14.1299C20.0461 14.2793 19.8468 14.354 19.6089 14.354H17.9321L14.2632 14.1548L17.4673 17.2344L21.0117 20.7788C21.0947 20.8618 21.1584 20.9559 21.2026 21.061C21.2469 21.1717 21.269 21.2852 21.269 21.4014C21.269 21.6615 21.1833 21.8662 21.0117 22.0156C20.8457 22.1706 20.6326 22.248 20.3726 22.248C20.1401 22.248 19.9492 22.1678 19.7998 22.0073L16.2637 18.4546L13.1758 15.2588L13.3667 18.9111V20.5879C13.3667 20.8314 13.2892 21.0334 13.1343 21.1938C12.9793 21.3543 12.7829 21.4346 12.5449 21.4346Z" fill="#E1A610"/>
</svg>
