<svg width="14" height="25" viewBox="0 0 14 25" fill="none" xmlns="http://www.w3.org/2000/svg">
<path d="M7.0083 17.2422C6.72607 17.2422 6.47152 17.1287 6.24463 16.9019L1.32227 11.9297C1.13965 11.7415 1.04834 11.5174 1.04834 11.2573C1.04834 10.9862 1.13965 10.7593 1.32227 10.5767C1.51042 10.3885 1.74007 10.2944 2.01123 10.2944C2.27132 10.2944 2.50374 10.394 2.7085 10.5933L7.32373 15.2749H6.69287L11.2998 10.5933C11.5046 10.394 11.737 10.2944 11.9971 10.2944C12.2627 10.2944 12.4868 10.3885 12.6694 10.5767C12.8576 10.7593 12.9517 10.9862 12.9517 11.2573C12.9517 11.5229 12.8604 11.7471 12.6777 11.9297L7.76367 16.9019C7.54785 17.1232 7.29606 17.2367 7.0083 17.2422Z" fill="#E1A610"/>
</svg>
