<svg width="18" height="17" viewBox="0 0 18 17" fill="none" xmlns="http://www.w3.org/2000/svg">
<path d="M5.90381 16.2285C5.69906 16.2285 5.52197 16.1538 5.37256 16.0044L0.491699 11.2148C0.408691 11.1318 0.345052 11.0433 0.300781 10.9492C0.262044 10.8551 0.242676 10.7583 0.242676 10.6587C0.242676 10.5535 0.262044 10.4539 0.300781 10.3599C0.345052 10.2658 0.408691 10.18 0.491699 10.1025L5.37256 5.31299C5.52197 5.15804 5.69906 5.08057 5.90381 5.08057C6.12516 5.08057 6.30225 5.14974 6.43506 5.28809C6.5734 5.42643 6.64258 5.60075 6.64258 5.81104C6.64258 5.92171 6.62321 6.01855 6.58447 6.10156C6.55127 6.18457 6.50423 6.25928 6.44336 6.32568L4.04443 8.6582L1.99414 10.4097L1.84473 10.0278L4.41797 9.91992H15.0181C15.4552 9.91992 15.7734 9.82031 15.9727 9.62109C16.1719 9.41634 16.2715 9.08708 16.2715 8.6333V3.72754C16.2715 3.28483 16.1719 2.96387 15.9727 2.76465C15.7734 2.56543 15.4552 2.46582 15.0181 2.46582H10.3696C10.1372 2.46582 9.95182 2.39388 9.81348 2.25C9.68066 2.10612 9.61426 1.9318 9.61426 1.72705C9.61426 1.5223 9.68343 1.34798 9.82178 1.2041C9.96012 1.06022 10.1427 0.988281 10.3696 0.988281H15.0181C15.9865 0.988281 16.6838 1.2041 17.1099 1.63574C17.5415 2.06185 17.7573 2.75911 17.7573 3.72754V8.6333C17.7573 9.57406 17.5415 10.2713 17.1099 10.7251C16.6838 11.1733 15.9865 11.3975 15.0181 11.3975H4.41797L1.84473 11.2812L1.99414 10.8994L4.04443 12.6592L6.44336 14.9917C6.50423 15.0581 6.55127 15.1328 6.58447 15.2158C6.62321 15.2988 6.64258 15.3929 6.64258 15.498C6.64258 15.7139 6.5734 15.8882 6.43506 16.021C6.30225 16.1593 6.12516 16.2285 5.90381 16.2285Z" fill="#3C3C43" fill-opacity="0.6"/>
</svg>
