<svg width="26" height="23" viewBox="0 0 26 23" fill="none" xmlns="http://www.w3.org/2000/svg">
<path d="M15.5742 21.6587C15.3252 21.6587 15.1204 21.5812 14.96 21.4263C14.7995 21.2713 14.7192 21.0721 14.7192 20.8286C14.7192 20.5851 14.7995 20.3859 14.96 20.231C15.126 20.0815 15.3307 20.0068 15.5742 20.0068H17.0269L20.7041 20.1978L17.5 17.1265L14.0801 13.6982C13.9971 13.6152 13.9334 13.5212 13.8892 13.416C13.8504 13.3109 13.8311 13.2002 13.8311 13.084C13.8311 12.8239 13.9141 12.6164 14.0801 12.4614C14.2516 12.3065 14.4647 12.229 14.7192 12.229C14.9517 12.229 15.1453 12.3092 15.3003 12.4697L18.6953 15.9062L21.7915 19.1021L21.6006 15.4414V13.9805C21.6006 13.737 21.6781 13.535 21.833 13.3745C21.988 13.214 22.1844 13.1338 22.4224 13.1338C22.6659 13.1338 22.8651 13.2168 23.02 13.3828C23.1805 13.5433 23.2607 13.7425 23.2607 13.9805V20.1978C23.2607 20.6571 23.1307 21.014 22.8706 21.2686C22.616 21.5286 22.2563 21.6587 21.7915 21.6587H15.5742ZM3.80371 9.87988C3.56022 9.87988 3.35824 9.79964 3.19775 9.63916C3.04281 9.47314 2.96533 9.27116 2.96533 9.0332V2.81592C2.96533 2.35661 3.09261 1.99967 3.34717 1.74512C3.60726 1.48503 3.96696 1.35498 4.42627 1.35498H10.6519C10.8953 1.35498 11.0973 1.43245 11.2578 1.5874C11.4238 1.74235 11.5068 1.94157 11.5068 2.18506C11.5068 2.42855 11.4238 2.62777 11.2578 2.78271C11.0918 2.93213 10.8898 3.00684 10.6519 3.00684H9.19092L5.52197 2.81592L8.72607 5.88721L12.146 9.31543C12.229 9.39844 12.2899 9.49251 12.3286 9.59766C12.3729 9.7028 12.395 9.81348 12.395 9.92969C12.395 10.1898 12.3092 10.3973 12.1377 10.5522C11.9717 10.7072 11.7614 10.7847 11.5068 10.7847C11.2744 10.7847 11.0807 10.7044 10.9258 10.5439L7.52246 7.10742L4.43457 3.91162L4.62549 7.57227V9.0332C4.62549 9.27669 4.54801 9.47868 4.39307 9.63916C4.23812 9.79964 4.04167 9.87988 3.80371 9.87988Z" fill="#E1A610"/>
</svg>
