<svg width="26" height="20" viewBox="0 0 26 20" fill="none" xmlns="http://www.w3.org/2000/svg">
<path d="M4.16797 19.644C3.09993 19.644 2.29476 19.3757 1.75244 18.8389C1.21012 18.3021 0.938965 17.5052 0.938965 16.4482V3.2998C0.938965 2.28711 1.18245 1.52897 1.66943 1.02539C2.16195 0.516276 2.86198 0.261719 3.76953 0.261719H6.81592C7.17008 0.261719 7.47445 0.286621 7.729 0.336426C7.98356 0.380697 8.21598 0.460938 8.42627 0.577148C8.64209 0.693359 8.86621 0.853841 9.09863 1.05859L9.72949 1.58984C10.0062 1.83333 10.2718 2.00212 10.5264 2.09619C10.7809 2.19027 11.1019 2.2373 11.4893 2.2373H21.8237C22.8918 2.2373 23.6969 2.5057 24.2393 3.04248C24.7816 3.57926 25.0527 4.37614 25.0527 5.43311V16.4482C25.0527 17.4997 24.7926 18.2938 24.2725 18.8306C23.7578 19.3729 23.0246 19.644 22.0728 19.644H4.16797ZM4.20117 18.1748H21.7988C22.3633 18.1748 22.8005 18.0226 23.1104 17.7183C23.4258 17.4139 23.5835 16.9657 23.5835 16.3735V5.50781C23.5835 4.91569 23.4258 4.46745 23.1104 4.16309C22.8005 3.85872 22.3633 3.70654 21.7988 3.70654H11.124C10.7699 3.70654 10.4627 3.68164 10.2026 3.63184C9.94255 3.58203 9.70459 3.50179 9.48877 3.39111C9.27295 3.2749 9.0516 3.11719 8.82471 2.91797L8.19385 2.38672C8.0057 2.2207 7.82585 2.09066 7.6543 1.99658C7.48828 1.89697 7.30843 1.8278 7.11475 1.78906C6.9266 1.74479 6.70524 1.72266 6.45068 1.72266H4.06006C3.52327 1.72266 3.11377 1.861 2.83154 2.1377C2.54932 2.41439 2.4082 2.83219 2.4082 3.39111V16.3652C2.4082 16.9629 2.56038 17.4139 2.86475 17.7183C3.17464 18.0226 3.62012 18.1748 4.20117 18.1748ZM1.82715 7.64111V6.25488H24.1729V7.64111H1.82715Z" fill="#E1A610"/>
</svg>
