<svg width="34" height="29" viewBox="0 0 34 29" fill="none" xmlns="http://www.w3.org/2000/svg">
<path d="M3.4707 10.8125C3.4707 9.61654 3.66406 8.51725 4.05078 7.51465C4.4375 6.51204 4.97819 5.64551 5.67285 4.91504C6.36751 4.17741 7.18392 3.60807 8.12207 3.20703C9.06022 2.80599 10.0807 2.60547 11.1836 2.60547C12.0286 2.60547 12.8236 2.74154 13.5684 3.01367C14.3132 3.27865 14.9827 3.65104 15.5771 4.13086C16.1715 4.61068 16.6693 5.17285 17.0703 5.81738C17.4785 5.17285 17.9798 4.61068 18.5742 4.13086C19.1686 3.64388 19.8346 3.2679 20.5723 3.00293C21.3171 2.73796 22.112 2.60547 22.957 2.60547C24.0599 2.60547 25.0804 2.80599 26.0186 3.20703C26.9567 3.60807 27.7731 4.17741 28.4678 4.91504C29.1696 5.64551 29.7103 6.51204 30.0898 7.51465C30.4766 8.51725 30.6699 9.61654 30.6699 10.8125C30.6699 12.2734 30.3691 13.7236 29.7676 15.1631C29.1732 16.5954 28.3174 18.0062 27.2002 19.3955C26.0902 20.7848 24.7546 22.1419 23.1934 23.4668C21.6393 24.7917 19.9027 26.0736 17.9834 27.3125C17.8473 27.3984 17.6934 27.4772 17.5215 27.5488C17.3568 27.6204 17.2064 27.6562 17.0703 27.6562C16.9414 27.6562 16.791 27.6204 16.6191 27.5488C16.4473 27.4772 16.2969 27.3984 16.168 27.3125C14.2415 26.0736 12.4977 24.7917 10.9365 23.4668C9.38249 22.1419 8.04688 20.7848 6.92969 19.3955C5.81966 18.0062 4.96387 16.5954 4.3623 15.1631C3.7679 13.7236 3.4707 12.2734 3.4707 10.8125ZM5.37207 10.8125C5.37207 12.1087 5.68001 13.4157 6.2959 14.7334C6.91895 16.0439 7.76758 17.3366 8.8418 18.6113C9.91602 19.8789 11.137 21.0964 12.5049 22.2637C13.8799 23.431 15.3158 24.516 16.8125 25.5186C16.9486 25.6117 17.0345 25.6582 17.0703 25.6582C17.1061 25.6582 17.1921 25.6117 17.3281 25.5186C18.832 24.516 20.2679 23.431 21.6357 22.2637C23.0107 21.0964 24.2318 19.8789 25.2988 18.6113C26.373 17.3366 27.2181 16.0439 27.834 14.7334C28.457 13.4157 28.7686 12.1087 28.7686 10.8125C28.7686 9.55924 28.5179 8.45996 28.0166 7.51465C27.5153 6.56934 26.8278 5.83171 25.9541 5.30176C25.0804 4.77181 24.0885 4.50684 22.9785 4.50684C22.1191 4.50684 21.3708 4.66439 20.7334 4.97949C20.096 5.2946 19.5446 5.69206 19.0791 6.17188C18.6208 6.64453 18.2305 7.13151 17.9082 7.63281C17.7292 7.86914 17.5824 8.03743 17.4678 8.1377C17.3532 8.23079 17.2207 8.27734 17.0703 8.27734C16.9199 8.27734 16.7839 8.23079 16.6621 8.1377C16.5404 8.0446 16.4007 7.8763 16.2432 7.63281C15.9281 7.12435 15.5413 6.63379 15.083 6.16113C14.6247 5.68132 14.0732 5.28743 13.4287 4.97949C12.7842 4.66439 12.0286 4.50684 11.1621 4.50684C10.0521 4.50684 9.06022 4.77181 8.18652 5.30176C7.31999 5.83171 6.63249 6.56934 6.12402 7.51465C5.62272 8.45996 5.37207 9.55924 5.37207 10.8125Z" fill="#E1A610"/>
</svg>
