<svg width="18" height="10" viewBox="0 0 18 10" fill="none" xmlns="http://www.w3.org/2000/svg">
<path d="M14.5229 0.617317C14.4468 0.801088 14.4468 1.03406 14.4468 1.5V8.5C14.4468 8.96594 14.4468 9.19891 14.5229 9.38268C14.6244 9.62771 14.8191 9.82239 15.0641 9.92388C15.2479 10 15.4808 10 15.9468 10C16.4127 10 16.6457 10 16.8295 9.92388C17.0745 9.82239 17.2692 9.62771 17.3707 9.38268C17.4468 9.19891 17.4468 8.96594 17.4468 8.5V1.5C17.4468 1.03406 17.4468 0.801088 17.3707 0.617317C17.2692 0.372288 17.0745 0.177614 16.8295 0.0761205C16.6457 0 16.4127 0 15.9468 0C15.4808 0 15.2479 0 15.0641 0.0761205C14.8191 0.177614 14.6244 0.372288 14.5229 0.617317Z" fill="black"/>
<path d="M9.94678 3.5C9.94678 3.03406 9.94678 2.80109 10.0229 2.61732C10.1244 2.37229 10.3191 2.17761 10.5641 2.07612C10.7479 2 10.9808 2 11.4468 2C11.9127 2 12.1457 2 12.3295 2.07612C12.5745 2.17761 12.7692 2.37229 12.8707 2.61732C12.9468 2.80109 12.9468 3.03406 12.9468 3.5V8.5C12.9468 8.96594 12.9468 9.19891 12.8707 9.38268C12.7692 9.62771 12.5745 9.82239 12.3295 9.92388C12.1457 10 11.9127 10 11.4468 10C10.9808 10 10.7479 10 10.5641 9.92388C10.3191 9.82239 10.1244 9.62771 10.0229 9.38268C9.94678 9.19891 9.94678 8.96594 9.94678 8.5V3.5Z" fill="black"/>
<path d="M5.5229 4.61732C5.44678 4.80109 5.44678 5.03406 5.44678 5.5V8.5C5.44678 8.96594 5.44678 9.19891 5.5229 9.38268C5.62439 9.62771 5.81907 9.82239 6.06409 9.92388C6.24787 10 6.48084 10 6.94678 10C7.41272 10 7.64569 10 7.82946 9.92388C8.07449 9.82239 8.26916 9.62771 8.37066 9.38268C8.44678 9.19891 8.44678 8.96594 8.44678 8.5V5.5C8.44678 5.03406 8.44678 4.80109 8.37066 4.61732C8.26916 4.37229 8.07449 4.17761 7.82946 4.07612C7.64569 4 7.41272 4 6.94678 4C6.48084 4 6.24787 4 6.06409 4.07612C5.81907 4.17761 5.62439 4.37229 5.5229 4.61732Z" fill="black"/>
<path d="M1.0229 6.11732C0.946777 6.30109 0.946777 6.53406 0.946777 7V8.5C0.946777 8.96594 0.946777 9.19891 1.0229 9.38268C1.12439 9.62771 1.31907 9.82239 1.56409 9.92388C1.74786 10 1.98084 10 2.44678 10C2.91272 10 3.14569 10 3.32946 9.92388C3.57449 9.82239 3.76916 9.62771 3.87066 9.38268C3.94678 9.19891 3.94678 8.96594 3.94678 8.5V7C3.94678 6.53406 3.94678 6.30109 3.87066 6.11732C3.76916 5.87229 3.57449 5.67761 3.32946 5.57612C3.14569 5.5 2.91272 5.5 2.44678 5.5C1.98084 5.5 1.74786 5.5 1.56409 5.57612C1.31907 5.67761 1.12439 5.87229 1.0229 6.11732Z" fill="black"/>
</svg>
