<svg width="10" height="16" viewBox="0 0 10 16" fill="none" xmlns="http://www.w3.org/2000/svg">
<path d="M9.51611 8C9.51611 7.89258 9.49658 7.79493 9.45752 7.70704C9.41846 7.61914 9.35986 7.53858 9.28174 7.46534L1.75245 0.22168C1.61084 0.0800783 1.4375 0.00927734 1.23243 0.00927734C1.09571 0.00927734 0.973636 0.0410164 0.866216 0.104492C0.753906 0.167969 0.666016 0.255859 0.602536 0.368166C0.534176 0.475586 0.499996 0.597656 0.499996 0.734376C0.499996 0.929686 0.570796 1.10059 0.712406 1.24707L7.72901 8L0.712406 14.7456C0.570796 14.8921 0.499996 15.063 0.499996 15.2583C0.499996 15.3999 0.534176 15.5244 0.602536 15.6319C0.666016 15.7442 0.753906 15.832 0.866216 15.8955C0.973636 15.959 1.09571 15.9907 1.23243 15.9907C1.4375 15.9907 1.61084 15.9199 1.75245 15.7783L9.28174 8.53467C9.35986 8.46143 9.41846 8.38086 9.45752 8.29297C9.49658 8.2002 9.51611 8.10254 9.51611 8Z" fill="black"/>
</svg>
