<svg width="33" height="23" viewBox="0 0 33 23" fill="none" xmlns="http://www.w3.org/2000/svg">
<path d="M9.5835 5.8208C9.37321 5.8208 9.19613 5.75163 9.05225 5.61328C8.9139 5.4694 8.84473 5.29508 8.84473 5.09033C8.84473 4.88005 8.9139 4.70573 9.05225 4.56738C9.19613 4.4235 9.37321 4.35156 9.5835 4.35156H24.2676C24.4779 4.35156 24.6522 4.4235 24.7905 4.56738C24.9344 4.70573 25.0063 4.88005 25.0063 5.09033C25.0063 5.29508 24.9344 5.4694 24.7905 5.61328C24.6522 5.75163 24.4779 5.8208 24.2676 5.8208H9.5835ZM14.8379 18.6787C14.6276 18.6787 14.4505 18.6068 14.3066 18.4629C14.1683 18.3245 14.0991 18.153 14.0991 17.9482C14.0991 17.738 14.1683 17.5636 14.3066 17.4253C14.4505 17.2814 14.6276 17.2095 14.8379 17.2095H29.5303C29.735 17.2095 29.9066 17.2814 30.0449 17.4253C30.1888 17.5636 30.2607 17.738 30.2607 17.9482C30.2607 18.153 30.1888 18.3245 30.0449 18.4629C29.9066 18.6068 29.735 18.6787 29.5303 18.6787H14.8379ZM12.2065 12.2539C12.0018 12.2539 11.8275 12.1847 11.6836 12.0464C11.5452 11.9025 11.4761 11.7254 11.4761 11.5151C11.4761 11.3104 11.5452 11.1388 11.6836 11.0005C11.8275 10.8566 12.0018 10.7847 12.2065 10.7847H26.8989C27.1092 10.7847 27.2835 10.8566 27.4219 11.0005C27.5658 11.1388 27.6377 11.3104 27.6377 11.5151C27.6377 11.7254 27.5658 11.9025 27.4219 12.0464C27.2835 12.1847 27.1092 12.2539 26.8989 12.2539H12.2065ZM10.2227 19.2515C9.97917 19.2515 9.75781 19.1934 9.55859 19.0771C9.36491 18.9609 9.20996 18.8032 9.09375 18.604C8.97754 18.4048 8.91943 18.1862 8.91943 17.9482C8.91943 17.7048 8.97754 17.4862 9.09375 17.2925C9.20996 17.0933 9.36491 16.9355 9.55859 16.8193C9.75781 16.7031 9.97917 16.645 10.2227 16.645C10.4606 16.645 10.6764 16.7031 10.8701 16.8193C11.0693 16.9355 11.2271 17.0933 11.3433 17.2925C11.465 17.4862 11.5259 17.7048 11.5259 17.9482C11.5259 18.1862 11.465 18.4048 11.3433 18.604C11.2271 18.8032 11.0693 18.9609 10.8701 19.0771C10.6764 19.1934 10.4606 19.2515 10.2227 19.2515ZM7.59131 12.8184C7.35335 12.8184 7.13477 12.7603 6.93555 12.644C6.73633 12.5278 6.57861 12.3729 6.4624 12.1792C6.34619 11.98 6.28809 11.7586 6.28809 11.5151C6.28809 11.2772 6.34619 11.0614 6.4624 10.8677C6.57861 10.6685 6.73633 10.5107 6.93555 10.3945C7.13477 10.2728 7.35335 10.2119 7.59131 10.2119C7.82926 10.2119 8.04785 10.2728 8.24707 10.3945C8.44629 10.5107 8.604 10.6685 8.72021 10.8677C8.83643 11.0614 8.89453 11.2772 8.89453 11.5151C8.89453 11.7586 8.83643 11.98 8.72021 12.1792C8.604 12.3729 8.44629 12.5278 8.24707 12.644C8.04785 12.7603 7.82926 12.8184 7.59131 12.8184ZM4.95996 6.39355C4.72201 6.39355 4.50342 6.33545 4.3042 6.21924C4.11051 6.09749 3.9528 5.93978 3.83105 5.74609C3.71484 5.54688 3.65674 5.32829 3.65674 5.09033C3.65674 4.84684 3.71484 4.62826 3.83105 4.43457C3.9528 4.23535 4.11051 4.07764 4.3042 3.96143C4.50342 3.84521 4.72201 3.78711 4.95996 3.78711C5.20345 3.78711 5.42204 3.84521 5.61572 3.96143C5.81494 4.07764 5.97266 4.23535 6.08887 4.43457C6.20508 4.62826 6.26318 4.84684 6.26318 5.09033C6.26318 5.32829 6.20508 5.54688 6.08887 5.74609C5.97266 5.93978 5.81494 6.09749 5.61572 6.21924C5.42204 6.33545 5.20345 6.39355 4.95996 6.39355Z" fill="#E1A610"/>
</svg>
