<svg width="10" height="17" viewBox="0 0 10 17" fill="none" xmlns="http://www.w3.org/2000/svg">
<path d="M0.365723 8.71191C0.365723 8.60449 0.385254 8.50684 0.424316 8.41895C0.463379 8.33105 0.521973 8.25049 0.600098 8.17725L8.12939 0.933594C8.271 0.791992 8.44434 0.721191 8.64941 0.721191C8.78613 0.721191 8.9082 0.75293 9.01562 0.816406C9.12793 0.879883 9.21582 0.967773 9.2793 1.08008C9.34766 1.1875 9.38184 1.30957 9.38184 1.44629C9.38184 1.6416 9.31104 1.8125 9.16943 1.95898L2.15283 8.71191L9.16943 15.4575C9.31104 15.604 9.38184 15.7749 9.38184 15.9702C9.38184 16.1118 9.34766 16.2363 9.2793 16.3438C9.21582 16.4561 9.12793 16.5439 9.01562 16.6074C8.9082 16.6709 8.78613 16.7026 8.64941 16.7026C8.44434 16.7026 8.271 16.6318 8.12939 16.4902L0.600098 9.24658C0.521973 9.17334 0.463379 9.09277 0.424316 9.00488C0.385254 8.91211 0.365723 8.81445 0.365723 8.71191Z" fill="#3C3C43" fill-opacity="0.18"/>
</svg>
