<svg width="32" height="32" viewBox="0 0 32 32" fill="none" xmlns="http://www.w3.org/2000/svg">
<path d="M8.3457 31.2354C6.96354 31.2354 5.92155 30.888 5.21973 30.1934C4.5179 29.4987 4.16699 28.4639 4.16699 27.0889V13.0488C4.16699 11.6738 4.5179 10.6426 5.21973 9.95508C5.92155 9.26042 6.96354 8.91309 8.3457 8.91309H12.2773V10.8145H8.38867C7.63672 10.8145 7.06022 11.0114 6.65918 11.4053C6.2653 11.7992 6.06836 12.3792 6.06836 13.1455V26.9922C6.06836 27.7656 6.2653 28.3457 6.65918 28.7324C7.06022 29.1263 7.63672 29.3232 8.38867 29.3232H24.2441C24.9818 29.3232 25.5511 29.1263 25.9521 28.7324C26.3604 28.3457 26.5645 27.7656 26.5645 26.9922V13.1455C26.5645 12.3792 26.3604 11.7992 25.9521 11.4053C25.5511 11.0114 24.9818 10.8145 24.2441 10.8145H20.3662V8.91309H24.2871C25.6764 8.91309 26.7184 9.26042 27.4131 9.95508C28.1149 10.6497 28.4658 11.681 28.4658 13.0488V27.0889C28.4658 28.4567 28.1149 29.488 27.4131 30.1826C26.7184 30.8844 25.6764 31.2354 24.2871 31.2354H8.3457ZM16.3164 20.4932C16.0658 20.4932 15.8473 20.4036 15.6611 20.2246C15.4749 20.0384 15.3818 19.82 15.3818 19.5693V4.90625L15.4463 2.86523L14.3184 4.03613L12.0518 6.39941C11.887 6.59277 11.6686 6.68945 11.3965 6.68945C11.153 6.68945 10.9489 6.61068 10.7842 6.45312C10.6266 6.29557 10.5479 6.09505 10.5479 5.85156C10.5479 5.72982 10.5729 5.61882 10.623 5.51855C10.6732 5.41829 10.7412 5.32161 10.8271 5.22852L15.6396 0.555664C15.7542 0.441081 15.8652 0.362305 15.9727 0.319336C16.0801 0.269206 16.1947 0.244141 16.3164 0.244141C16.4382 0.244141 16.5527 0.269206 16.6602 0.319336C16.7676 0.362305 16.8822 0.441081 17.0039 0.555664L21.8057 5.22852C21.8916 5.32161 21.9596 5.41829 22.0098 5.51855C22.0599 5.61882 22.085 5.72982 22.085 5.85156C22.085 6.09505 22.0026 6.29557 21.8379 6.45312C21.6732 6.61068 21.4691 6.68945 21.2256 6.68945C20.9606 6.68945 20.7458 6.59277 20.5811 6.39941L18.3145 4.03613L17.1865 2.86523L17.2617 4.90625V19.5693C17.2617 19.82 17.1686 20.0384 16.9824 20.2246C16.7962 20.4036 16.5742 20.4932 16.3164 20.4932Z" fill="#E1A610"/>
</svg>
