<svg width="15" height="10" viewBox="0 0 15 10" fill="none" xmlns="http://www.w3.org/2000/svg">
<path d="M12.9515 4.246C13.065 4.3525 13.24 4.353 13.3505 4.243L14.4145 3.179C14.529 3.064 14.5295 2.8745 14.4115 2.763C12.6025 1.0505 10.161 0 7.47347 0C4.78597 0 2.34447 1.0505 0.535467 2.763C0.417467 2.8745 0.417967 3.064 0.532467 3.179L1.59647 4.243C1.70697 4.353 1.88197 4.3525 1.99547 4.246C3.42997 2.9015 5.35697 2.077 7.47347 2.077C9.58997 2.077 11.517 2.9015 12.9515 4.246Z" fill="black"/>
<path d="M10.5046 6.69645C10.6201 6.79945 10.7926 6.80045 10.9021 6.69095L11.9646 5.62845C12.0801 5.51295 12.0806 5.32045 11.9606 5.20995C10.7796 4.12445 9.20409 3.46145 7.47359 3.46145C5.74309 3.46145 4.16759 4.12445 2.98659 5.20995C2.86659 5.32045 2.86709 5.51295 2.98259 5.62845L4.04509 6.69095C4.15459 6.80045 4.32709 6.79945 4.44259 6.69645C5.24859 5.97695 6.31059 5.53845 7.47359 5.53845C8.63659 5.53845 9.69859 5.97695 10.5046 6.69645Z" fill="black"/>
<path d="M9.50844 7.6611C9.63394 7.7661 9.63294 7.9616 9.51694 8.0776L7.67894 9.9156C7.56644 10.0281 7.38344 10.0281 7.27094 9.9156L5.43294 8.0776C5.31694 7.9616 5.31544 7.7661 5.44144 7.6611C5.99194 7.2006 6.70094 6.9231 7.47494 6.9231C8.24894 6.9231 8.95744 7.2006 9.50844 7.6611Z" fill="black"/>
</svg>
